<svg xmlns="http://www.w3.org/2000/svg" xmlns:xlink="http://www.w3.org/1999/xlink" width="500" zoomAndPan="magnify" viewBox="0 0 375 374.999991" height="500" preserveAspectRatio="xMidYMid meet" version="1.2"><defs><clipPath id="ad679f65c4"><path d="M 22.449219 22.449219 L 352.449219 22.449219 L 352.449219 352.449219 L 22.449219 352.449219 Z M 22.449219 22.449219 "/></clipPath></defs><g id="010c9754ab"><g clip-rule="nonzero" clip-path="url(#ad679f65c4)"><path style=" stroke:none;fill-rule:nonzero;fill:#1447e6;fill-opacity:1;" d="M 187.449219 22.449219 C 190.152344 22.449219 192.847656 22.515625 195.546875 22.648438 C 198.242188 22.78125 200.9375 22.980469 203.621094 23.246094 C 206.308594 23.507812 208.988281 23.839844 211.660156 24.234375 C 214.332031 24.632812 216.992188 25.09375 219.640625 25.621094 C 222.289062 26.148438 224.921875 26.738281 227.542969 27.394531 C 230.160156 28.050781 232.761719 28.769531 235.347656 29.554688 C 237.929688 30.339844 240.496094 31.1875 243.035156 32.09375 C 245.578125 33.003906 248.097656 33.976562 250.59375 35.011719 C 253.085938 36.042969 255.554688 37.136719 257.996094 38.292969 C 260.4375 39.445312 262.847656 40.660156 265.230469 41.933594 C 267.613281 43.207031 269.960938 44.535156 272.277344 45.925781 C 274.59375 47.3125 276.875 48.757812 279.121094 50.257812 C 281.363281 51.757812 283.570312 53.3125 285.742188 54.921875 C 287.910156 56.53125 290.039062 58.191406 292.125 59.902344 C 294.210938 61.617188 296.257812 63.378906 298.257812 65.191406 C 300.257812 67.007812 302.214844 68.867188 304.121094 70.777344 C 306.03125 72.6875 307.894531 74.640625 309.707031 76.644531 C 311.519531 78.644531 313.285156 80.6875 314.996094 82.773438 C 316.710938 84.863281 318.371094 86.992188 319.980469 89.160156 C 321.589844 91.328125 323.140625 93.535156 324.644531 95.78125 C 326.144531 98.027344 327.585938 100.308594 328.976562 102.625 C 330.363281 104.9375 331.695312 107.289062 332.96875 109.667969 C 334.238281 112.050781 335.453125 114.460938 336.609375 116.902344 C 337.761719 119.34375 338.855469 121.8125 339.890625 124.308594 C 340.921875 126.800781 341.894531 129.320312 342.804688 131.863281 C 343.714844 134.40625 344.5625 136.96875 345.34375 139.554688 C 346.128906 142.136719 346.847656 144.738281 347.503906 147.359375 C 348.160156 149.976562 348.753906 152.613281 349.28125 155.261719 C 349.804688 157.910156 350.269531 160.570312 350.664062 163.238281 C 351.058594 165.910156 351.390625 168.589844 351.65625 171.277344 C 351.921875 173.964844 352.117188 176.65625 352.25 179.355469 C 352.382812 182.050781 352.449219 184.75 352.449219 187.449219 C 352.449219 190.152344 352.382812 192.847656 352.25 195.546875 C 352.117188 198.242188 351.921875 200.9375 351.65625 203.621094 C 351.390625 206.308594 351.058594 208.988281 350.664062 211.660156 C 350.269531 214.332031 349.804688 216.992188 349.28125 219.640625 C 348.753906 222.289062 348.160156 224.921875 347.503906 227.542969 C 346.847656 230.160156 346.128906 232.761719 345.34375 235.347656 C 344.5625 237.929688 343.714844 240.496094 342.804688 243.035156 C 341.894531 245.578125 340.921875 248.097656 339.890625 250.59375 C 338.855469 253.085938 337.761719 255.554688 336.609375 257.996094 C 335.453125 260.4375 334.238281 262.847656 332.96875 265.230469 C 331.695312 267.613281 330.363281 269.960938 328.976562 272.277344 C 327.585938 274.59375 326.144531 276.875 324.644531 279.121094 C 323.140625 281.363281 321.589844 283.570312 319.980469 285.742188 C 318.371094 287.910156 316.710938 290.039062 314.996094 292.125 C 313.285156 294.210938 311.519531 296.257812 309.707031 298.257812 C 307.894531 300.257812 306.03125 302.214844 304.121094 304.121094 C 302.214844 306.03125 300.257812 307.894531 298.257812 309.707031 C 296.257812 311.519531 294.210938 313.285156 292.125 314.996094 C 290.039062 316.710938 287.910156 318.371094 285.742188 319.980469 C 283.570312 321.589844 281.363281 323.140625 279.121094 324.644531 C 276.875 326.144531 274.59375 327.585938 272.277344 328.976562 C 269.960938 330.363281 267.613281 331.695312 265.230469 332.96875 C 262.847656 334.238281 260.4375 335.453125 257.996094 336.609375 C 255.554688 337.761719 253.085938 338.855469 250.59375 339.890625 C 248.097656 340.921875 245.578125 341.894531 243.035156 342.804688 C 240.496094 343.714844 237.929688 344.5625 235.347656 345.34375 C 232.761719 346.128906 230.160156 346.847656 227.542969 347.503906 C 224.921875 348.160156 222.289062 348.753906 219.640625 349.28125 C 216.992188 349.804688 214.332031 350.269531 211.660156 350.664062 C 208.988281 351.058594 206.308594 351.390625 203.621094 351.65625 C 200.9375 351.921875 198.242188 352.117188 195.546875 352.25 C 192.847656 352.382812 190.152344 352.449219 187.449219 352.449219 C 184.75 352.449219 182.050781 352.382812 179.355469 352.25 C 176.65625 352.117188 173.964844 351.921875 171.277344 351.65625 C 168.589844 351.390625 165.910156 351.058594 163.238281 350.664062 C 160.570312 350.269531 157.910156 349.804688 155.261719 349.28125 C 152.613281 348.753906 149.976562 348.160156 147.359375 347.503906 C 144.738281 346.847656 142.136719 346.128906 139.554688 345.34375 C 136.96875 344.5625 134.40625 343.714844 131.863281 342.804688 C 129.320312 341.894531 126.800781 340.921875 124.308594 339.890625 C 121.8125 338.855469 119.34375 337.761719 116.902344 336.609375 C 114.460938 335.453125 112.050781 334.238281 109.667969 332.96875 C 107.289062 331.695312 104.9375 330.363281 102.625 328.976562 C 100.308594 327.585938 98.027344 326.144531 95.78125 324.644531 C 93.535156 323.140625 91.328125 321.589844 89.160156 319.980469 C 86.992188 318.371094 84.863281 316.710938 82.773438 314.996094 C 80.6875 313.285156 78.644531 311.519531 76.644531 309.707031 C 74.640625 307.894531 72.6875 306.03125 70.777344 304.121094 C 68.867188 302.214844 67.007812 300.257812 65.191406 298.257812 C 63.378906 296.257812 61.617188 294.210938 59.902344 292.125 C 58.191406 290.039062 56.53125 287.910156 54.921875 285.742188 C 53.3125 283.570312 51.757812 281.363281 50.257812 279.121094 C 48.757812 276.875 47.3125 274.59375 45.925781 272.277344 C 44.535156 269.960938 43.207031 267.613281 41.933594 265.230469 C 40.660156 262.847656 39.445312 260.4375 38.292969 257.996094 C 37.136719 255.554688 36.042969 253.085938 35.011719 250.59375 C 33.976562 248.097656 33.003906 245.578125 32.09375 243.035156 C 31.1875 240.496094 30.339844 237.929688 29.554688 235.347656 C 28.769531 232.761719 28.050781 230.160156 27.394531 227.542969 C 26.738281 224.921875 26.148438 222.289062 25.621094 219.640625 C 25.09375 216.992188 24.632812 214.332031 24.234375 211.660156 C 23.839844 208.988281 23.507812 206.308594 23.246094 203.621094 C 22.980469 200.9375 22.78125 198.242188 22.648438 195.546875 C 22.515625 192.847656 22.449219 190.152344 22.449219 187.449219 C 22.449219 184.75 22.515625 182.050781 22.648438 179.355469 C 22.78125 176.65625 22.980469 173.964844 23.246094 171.277344 C 23.507812 168.589844 23.839844 165.910156 24.234375 163.238281 C 24.632812 160.570312 25.09375 157.910156 25.621094 155.261719 C 26.148438 152.613281 26.738281 149.976562 27.394531 147.359375 C 28.050781 144.738281 28.769531 142.136719 29.554688 139.554688 C 30.339844 136.96875 31.1875 134.40625 32.09375 131.863281 C 33.003906 129.320312 33.976562 126.800781 35.011719 124.308594 C 36.042969 121.8125 37.136719 119.34375 38.292969 116.902344 C 39.445312 114.460938 40.660156 112.050781 41.933594 109.667969 C 43.207031 107.289062 44.535156 104.9375 45.925781 102.625 C 47.3125 100.308594 48.757812 98.027344 50.257812 95.78125 C 51.757812 93.535156 53.3125 91.328125 54.921875 89.160156 C 56.53125 86.992188 58.191406 84.863281 59.902344 82.773438 C 61.617188 80.6875 63.378906 78.644531 65.191406 76.644531 C 67.007812 74.640625 68.867188 72.6875 70.777344 70.777344 C 72.6875 68.867188 74.640625 67.007812 76.644531 65.191406 C 78.644531 63.378906 80.6875 61.617188 82.773438 59.902344 C 84.863281 58.191406 86.992188 56.53125 89.160156 54.921875 C 91.328125 53.3125 93.535156 51.757812 95.78125 50.257812 C 98.027344 48.757812 100.308594 47.3125 102.625 45.925781 C 104.9375 44.535156 107.289062 43.207031 109.667969 41.933594 C 112.050781 40.660156 114.460938 39.445312 116.902344 38.292969 C 119.34375 37.136719 121.8125 36.042969 124.308594 35.011719 C 126.800781 33.976562 129.320312 33.003906 131.863281 32.09375 C 134.40625 31.1875 136.96875 30.339844 139.554688 29.554688 C 142.136719 28.769531 144.738281 28.050781 147.359375 27.394531 C 149.976562 26.738281 152.613281 26.148438 155.261719 25.621094 C 157.910156 25.09375 160.570312 24.632812 163.238281 24.234375 C 165.910156 23.839844 168.589844 23.507812 171.277344 23.246094 C 173.964844 22.980469 176.65625 22.78125 179.355469 22.648438 C 182.050781 22.515625 184.75 22.449219 187.449219 22.449219 Z M 187.449219 22.449219 "/></g><path style=" stroke:none;fill-rule:nonzero;fill:#ffffff;fill-opacity:1;" d="M 187.511719 286.5 C 168.828125 286.5 150.058594 281.203125 133.539062 270.402344 L 88.4375 282.464844 L 101.023438 235.554688 C 79.574219 197.035156 86.199219 148.875 117.574219 117.5 C 136.265625 98.804688 161.117188 88.511719 187.550781 88.511719 C 213.980469 88.511719 238.824219 98.808594 257.503906 117.503906 C 296.082031 156.082031 296.078125 218.867188 257.503906 257.453125 C 238.316406 276.640625 213 286.5 187.511719 286.5 Z M 136.007812 256.058594 L 138.527344 257.820312 C 172.597656 281.640625 218.699219 277.558594 248.152344 248.109375 C 281.582031 214.675781 281.582031 160.28125 248.152344 126.847656 C 231.96875 110.652344 210.445312 101.734375 187.546875 101.734375 C 164.648438 101.734375 143.113281 110.652344 126.917969 126.847656 C 99.152344 154.613281 93.753906 197.546875 113.789062 231.253906 L 115.214844 233.648438 L 107.132812 263.785156 L 136.003906 256.0625 Z M 136.007812 256.058594 "/><path style=" stroke:none;fill-rule:nonzero;fill:#ffffff;fill-opacity:1;" d="M 159.007812 180.859375 L 215.886719 180.859375 L 215.886719 194.078125 L 159.007812 194.078125 Z M 159.007812 180.859375 "/><path style=" stroke:none;fill-rule:nonzero;fill:#ffffff;fill-opacity:1;" d="M 143.167969 150.53125 L 231.726562 150.53125 L 231.726562 163.746094 L 143.167969 163.746094 Z M 143.167969 150.53125 "/><path style=" stroke:none;fill-rule:nonzero;fill:#ffffff;fill-opacity:1;" d="M 143.167969 211.191406 L 231.726562 211.191406 L 231.726562 224.40625 L 143.167969 224.40625 Z M 143.167969 211.191406 "/></g></svg>